PathFileType	4	(X/Y/Z)	E:\Qualisys_Data\Carbon_Farble_Plate\Data\Amateur_Runner\S2\T3\S2T3V11_c3d.trc
DataRate	CameraRate	NumFrames	NumMarkers	Units	OrigDataRate	OrigDataStartFrame	OrigNumFrames
200.000000	200.000000	4	39	mm	200.000000	243	324
Frame#	Time	LSHO			RSHO			LICST			RICST			LASIS			LHEEL			RASIS			LTROC			RTROC			SACR			LTH1			LSK4			LTH2			LTH3			RHM5			LSK2			LTH4			RTH1			LTOE			RTH2			RTH3			RTH4			LLEP			RLEP			LSK1			LSK3			RSK1			LHM5			RSK2			LFT1			RSK3			RSK4			LLME			RLME			RTOE			RHEEL			RFT1			RFT2			LFT2			
		X1	Y1	Z1	X2	Y2	Z2	X3	Y3	Z3	X4	Y4	Z4	X5	Y5	Z5	X6	Y6	Z6	X7	Y7	Z7	X8	Y8	Z8	X9	Y9	Z9	X10	Y10	Z10	X11	Y11	Z11	X12	Y12	Z12	X13	Y13	Z13	X14	Y14	Z14	X15	Y15	Z15	X16	Y16	Z16	X17	Y17	Z17	X18	Y18	Z18	X19	Y19	Z19	X20	Y20	Z20	X21	Y21	Z21	X22	Y22	Z22	X23	Y23	Z23	X24	Y24	Z24	X25	Y25	Z25	X26	Y26	Z26	X27	Y27	Z27	X28	Y28	Z28	X29	Y29	Z29	X30	Y30	Z30	X31	Y31	Z31	X32	Y32	Z32	X33	Y33	Z33	X34	Y34	Z34	X35	Y35	Z35	X36	Y36	Z36	X37	Y37	Z37	X38	Y38	Z38	X39	Y39	Z39	

244	1.215	1290.23486328125	1446.4677734375	-501.7476806640625	1375.72216796875	1425.801635742188	-199.7644195556641	1268.129028320312	990.4884643554688	-474.8731079101562	1303.776000976562	978.8953857421876	-177.2317352294922	1328.306518554688	942.230712890625	-458.9896240234375	1376.395141601562	71.01522827148438	-332.2495727539062	1355.78173828125	926.719970703125	-203.1790161132812	1207.661987304688	866.0573120117188	-480.4209899902344	1198.664672851562	896.7769165039062	-162.4808349609375	1191.413818359375	1029.158935546875	-313.7545471191406	1399.038330078125	650.68017578125	-479.4443054199219	1367.928955078125	262.0583801269531	-432.2091064453125	1320.596069335938	623.3320922851562	-475.5825805664062	1432.539184570312	558.6681518554688	-443.8175048828125	664.7250366210938	271.0332946777344	-200.855224609375	1362.716796875	359.3837890625	-451.8788452148438	1351.369384765625	532.1618041992188	-445.7837219238281	1230.141479492188	611.196533203125	-162.0037689208984	1612.688598632812	127.5898971557617	-382.6568603515625	1159.65966796875	640.9680786132812	-158.8992919921875	1192.004760742188	518.4182739257812	-171.9156951904297	1118.631958007812	551.9869995117188	-175.3352661132812	1401.49169921875	500.39697265625	-444.6199645996094	1125.034057617188	512.6898193359375	-167.2859497070312	1439.783325195312	364.8736877441406	-446.3835144042969	1446.958374023438	266.1685180664062	-429.4151916503906	1030.207641601562	435.5347290039062	-164.1844329833984	1553.423950195312	82.36795043945312	-433.265869140625	1006.976135253906	511.7725830078125	-163.0848999023438	1396.695678710938	47.45326614379883	-305.3424072265625	933.0805053710938	405.298583984375	-174.6238098144531	912.801025390625	482.2171630859375	-178.4883270263672	1426.416015625	91.14938354492188	-396.6194152832031	744.83935546875	387.6181640625	-210.4062957763672	681.1397705078125	202.4821472167969	-253.1577453613281	751.1234130859375	444.9037475585938	-269.2897644042969	731.6707763671875	436.5754089355469	-304.6453857421875	722.3712158203125	452.5508728027344	-255.4515686035156	1387.07666015625	39.66255187988281	-355.74951171875
245	1.22	1306.785888671875	1441.1484375	-502.9679565429688	1391.593017578125	1421.296997070312	-200.2984771728516	1282.961669921875	986.1595458984376	-474.80615234375	1319.869018554688	974.0479125976562	-176.7245025634766	1344.04833984375	938.13330078125	-459.4418640136719	1382.900390625	74.61392974853516	-332.4500732421875	1372.257568359375	922.391357421875	-203.1056213378906	1224.009155273438	861.9118041992188	-480.0927429199219	1215.470092773438	890.7202758789062	-162.3672180175781	1207.362426757812	1024.383666992188	-313.5502624511719	1416.206176757812	648.5739135742188	-476.1717224121094	1379.262084960938	258.2986755371094	-430.4453735351562	1337.536865234375	621.711669921875	-472.9387512207031	1449.40673828125	555.7719116210938	-442.8941955566406	681.4270629882812	277.77392578125	-201.9844360351562	1376.361206054688	354.9629516601562	-449.7012023925781	1368.173095703125	529.7806396484375	-445.3624267578125	1250.75390625	605.6405029296875	-160.9733428955078	1621.971923828125	114.3805923461914	-379.4883728027344	1179.973388671875	634.2174072265625	-158.5912933349609	1214.062255859375	512.1270141601562	-170.0165557861328	1140.784545898438	544.6063842773438	-174.3294219970703	1417.60107421875	496.7196655273438	-443.4201049804688	1147.295776367188	505.3748779296875	-165.9503479003906	1454.842895507812	359.0021362304688	-443.2242736816406	1458.978149414062	260.8369140625	-427.6329956054688	1051.495849609375	430.6107482910156	-163.1707153320312	1559.898071289062	74.03495025634766	-429.9155883789062	1030.165161132812	507.7913818359375	-162.4059753417969	1400.315185546875	47.56376266479492	-304.6583251953125	953.8015747070312	403.0899963378906	-173.9513244628906	935.7491455078124	480.6929931640625	-177.8814849853516	1433.051147460938	89.4205322265625	-395.0178833007812	765.5709838867188	391.1436462402344	-210.8512725830078	695.6621704101562	208.4345245361328	-253.1906585693359	775.1709594726562	448.1986694335938	-269.8086547851562	755.47265625	439.4783935546875	-304.9712219238281	746.6077880859375	456.9347229003906	-255.1398010253906	1390.55810546875	41.06636047363281	-355.0713195800781
246	1.225	1323.221557617188	1435.328002929688	-504.3146057128906	1407.455444335938	1416.480102539062	-200.7142944335938	1298.232177734375	981.4562377929688	-474.7069396972656	1336.131591796875	968.9253540039062	-176.7407989501953	1359.520629882812	934.240966796875	-459.8551330566406	1387.569213867188	73.9418716430664	-332.70458984375	1388.535034179688	917.5802612304688	-203.4061584472656	1239.753784179688	856.9934692382812	-479.545654296875	1232.485595703125	884.3818969726562	-161.8444366455078	1223.221435546875	1019.173645019531	-313.2051696777344	1432.578735351562	645.8712158203125	-473.7853698730469	1390.878662109375	254.0802001953125	-428.437255859375	1355.102416992188	619.1506958007812	-471.390869140625	1466.2568359375	552.0797119140625	-442.5401000976562	699.1809692382812	283.9778137207031	-202.261474609375	1389.6220703125	351.3294677734375	-448.2510375976562	1384.96923828125	526.4593505859375	-444.5192260742188	1271.5517578125	599.8976440429688	-159.6151580810547	1629.554443359375	101.211555480957	-376.1452941894531	1200.295288085938	627.4359130859375	-158.4078674316406	1236.525146484375	505.6058654785156	-167.8410949707031	1162.581298828125	536.9567260742188	-173.8397369384766	1433.531127929688	492.6979064941406	-442.3549194335938	1170.270629882812	498.2744750976562	-164.196044921875	1468.281616210938	353.5415344238281	-441.6178894042969	1470.44287109375	255.0819549560547	-425.5492248535156	1073.462524414062	425.7486267089844	-162.3655395507812	1566.236450195312	62.99394607543945	-426.0645751953125	1054.28564453125	503.65869140625	-161.3453521728516	1402.59814453125	46.63581848144531	-304.9628601074219	975.0531616210938	400.989501953125	-173.21923828125	958.8491821289062	478.8032836914062	-177.1869049072266	1439.358642578125	86.7696762084961	-393.7397766113281	787.0427856445312	394.8455200195312	-211.0875854492188	711.1471557617188	214.2590484619141	-253.2560119628906	799.4805908203125	450.5075073242188	-269.9739685058594	780.0155029296875	443.3957824707031	-305.8853149414062	771.4224243164062	460.8731384277344	-255.9552917480469	1393.563842773438	40.48244857788086	-355.8837280273438
247	1.23	1340.12255859375	1429.57861328125	-505.8542175292969	1423.17529296875	1411.715087890625	-201.5160980224609	1313.5537109375	977.036376953125	-474.9057312011719	1352.154418945312	963.699951171875	-176.4457092285156	1375.175415039062	930.0391235351562	-460.0206298828125	1390.88232421875	72.97309112548828	-333.3737182617188	1404.8212890625	912.492431640625	-203.3333892822266	1255.860595703125	852.3216552734375	-479.0514831542969	1249.385864257812	877.8734741210938	-161.5149078369141	1239.250732421875	1013.74755859375	-313.0464172363281	1449.114379882812	642.8505249023438	-470.5245056152344	1402.161987304688	250.5702667236328	-426.9838256835938	1372.363403320312	615.4896850585938	-471.1075439453125	1482.588134765625	548.3822021484375	-442.4106750488281	717.6948852539062	290.5648803710938	-201.8257293701172	1403.654418945312	347.8249206542969	-446.9461975097656	1401.649291992188	522.8174438476562	-443.6000061035156	1292.72998046875	593.9021606445312	-158.4316558837891	1635.459838867188	89.61918640136719	-371.4670104980469	1220.855712890625	620.0984497070312	-157.7189636230469	1259.137939453125	499.6273498535156	-166.1238403320312	1184.567138671875	529.2171020507812	-172.9071502685547	1449.70458984375	488.4530639648438	-441.4135437011719	1193.373657226562	491.2190856933594	-162.2177581787109	1482.333129882812	348.096923828125	-439.2171630859375	1481.495849609375	249.8114776611328	-423.7337646484375	1095.516357421875	421.0225219726562	-160.8811492919922	1571.104125976562	56.39702224731445	-423.6450805664062	1078.14404296875	498.9887084960938	-160.64599609375	1404.47216796875	45.70634841918945	-305.18359375	996.4107666015624	398.1422119140625	-172.6944580078125	982.3543701171876	476.3905334472656	-176.5963592529297	1444.318115234375	83.6584701538086	-393.12158203125	809.2259521484375	397.8789978027344	-211.8459930419922	727.8843994140625	219.8428039550781	-252.6100006103516	824.5118408203125	452.8555297851562	-270.3694763183594	804.84521484375	446.2449340820312	-306.4917602539062	796.5206909179688	463.547119140625	-257.32373046875	1395.078125	39.66669082641602	-356.3099060058594
